HIERARCHY
ROOT Hips
{
  OFFSET 377.763 88.2609 174.383
  CHANNELS 6 Xposition Yposition Zposition Zrotation Xrotation Yrotation
  JOINT RightUpLeg
  {
    OFFSET -9.30536 -1.56319 -0.0308412
    CHANNELS 3 Zrotation Xrotation Yrotation
    JOINT RightLeg
    {
      OFFSET -0.0509473 -41.8867 0.0408735
      CHANNELS 3 Zrotation Xrotation Yrotation
      JOINT RightFoot
      {
        OFFSET -0.135761 -42.7852 -0.897951
        CHANNELS 3 Zrotation Xrotation Yrotation
        End Site
        {
          OFFSET 0 -7.69 17.5
        }
      }
    }
  }
  JOINT LeftUpLeg
  {
    OFFSET 9.25165 -1.62789 -0.00729124
    CHANNELS 3 Zrotation Xrotation Yrotation
    JOINT LeftLeg
    {
      OFFSET 0.024936 -41.8804 0.00207043
      CHANNELS 3 Zrotation Xrotation Yrotation
      JOINT LeftFoot
      {
        OFFSET 0.245063 -40.7505 0.529473
        CHANNELS 3 Zrotation Xrotation Yrotation
        End Site
        {
          OFFSET 0 -7.69 17.5
        }
      }
    }
  }
  JOINT Spine
  {
    OFFSET 0.0381636 14.2969 0.0214663
    CHANNELS 3 Zrotation Xrotation Yrotation
    JOINT Spine1
    {
      OFFSET 0.0273681 9.71499 0.0100001
      CHANNELS 3 Zrotation Xrotation Yrotation
      JOINT Spine2
      {
        OFFSET 0.029022 10.1215 -0.000399631
        CHANNELS 3 Zrotation Xrotation Yrotation
        JOINT Spine3
        {
          OFFSET 0.0290531 9.71322 0.0107928
          CHANNELS 3 Zrotation Xrotation Yrotation
          JOINT Neck
          {
            OFFSET 0.0830829 10.3832 0.0498053
            CHANNELS 3 Zrotation Xrotation Yrotation
            JOINT Head
            {
              OFFSET 0.0700972 9.47827 0.0499309
              CHANNELS 3 Zrotation Xrotation Yrotation
              End Site
              {
                OFFSET 0 15.95 0
              }
            }
          }
          JOINT RightShoulder
          {
            OFFSET -3.16088 6.93633 0.0290789
            CHANNELS 3 Zrotation Xrotation Yrotation
            JOINT RightArm
            {
              OFFSET -12.7509 0.028765 0.0682708
              CHANNELS 3 Zrotation Xrotation Yrotation
              JOINT RightForeArm
              {
                OFFSET -26.5067 -0.0728143 0.13822
                CHANNELS 3 Zrotation Xrotation Yrotation
                JOINT RightHand
                {
                  OFFSET -25.9897 -0.0664148 0.00141744
                  CHANNELS 3 Zrotation Xrotation Yrotation
                  JOINT RightHandThumb1
                  {
                    OFFSET -2.48905 0.190105 3.12053
                    CHANNELS 3 Zrotation Xrotation Yrotation
                    JOINT RightHandThumb2
                    {
                      OFFSET -3.68274 0 0
                      CHANNELS 3 Zrotation Xrotation Yrotation
                      JOINT RightHandThumb3
                      {
                        OFFSET -2.55832 0 0
                        CHANNELS 3 Zrotation Xrotation Yrotation
                        End Site
                        {
                          OFFSET -2.194 0 0
                        }
                      }
                    }
                  }
                  JOINT RightInHandIndex
                  {
                    OFFSET -3.22368 0.508421 1.97842
                    CHANNELS 3 Zrotation Xrotation Yrotation
                    JOINT RightHandIndex1
                    {
                      OFFSET -5.21684 -0.091368 0.999158
                      CHANNELS 3 Zrotation Xrotation Yrotation
                      JOINT RightHandIndex2
                      {
                        OFFSET -3.61937 0 0
                        CHANNELS 3 Zrotation Xrotation Yrotation
                        JOINT RightHandIndex3
                        {
                          OFFSET -2.0521 0 0
                          CHANNELS 3 Zrotation Xrotation Yrotation
                          End Site
                          {
                            OFFSET -1.805 0 0
                          }
                        }
                      }
                    }
                  }
                  JOINT RightInHandMiddle
                  {
                    OFFSET -3.38211 0.517263 0.756737
                    CHANNELS 3 Zrotation Xrotation Yrotation
                    JOINT RightHandMiddle1
                    {
                      OFFSET -5.17411 -0.084 0.313895
                      CHANNELS 3 Zrotation Xrotation Yrotation
                      JOINT RightHandMiddle2
                      {
                        OFFSET -3.94947 0 0
                        CHANNELS 3 Zrotation Xrotation Yrotation
                        JOINT RightHandMiddle3
                        {
                          OFFSET -2.47579 0 0
                          CHANNELS 3 Zrotation Xrotation Yrotation
                          End Site
                          {
                            OFFSET -1.975 0 0
                          }
                        }
                      }
                    }
                  }
                  JOINT RightInHandRing
                  {
                    OFFSET -3.36516 0.537895 -0.128947
                    CHANNELS 3 Zrotation Xrotation Yrotation
                    JOINT RightHandRing1
                    {
                      OFFSET -4.63474 -0.022105 -0.478947
                      CHANNELS 3 Zrotation Xrotation Yrotation
                      JOINT RightHandRing2
                      {
                        OFFSET -3.44238 0 0
                        CHANNELS 3 Zrotation Xrotation Yrotation
                        JOINT RightHandRing3
                        {
                          OFFSET -2.3881 0 0
                          CHANNELS 3 Zrotation Xrotation Yrotation
                          End Site
                          {
                            OFFSET -1.857 0 0
                          }
                        }
                      }
                    }
                  }
                  JOINT RightInHandPinky
                  {
                    OFFSET -3.16105 0.469368 -1.20179
                    CHANNELS 3 Zrotation Xrotation Yrotation
                    JOINT RightHandPinky1
                    {
                      OFFSET -4.14105 -0.022105 -1.09053
                      CHANNELS 3 Zrotation Xrotation Yrotation
                      JOINT RightHandPinky2
                      {
                        OFFSET -2.75653 0 0
                        CHANNELS 3 Zrotation Xrotation Yrotation
                        JOINT RightHandPinky3
                        {
                          OFFSET -1.74189 0 0
                          CHANNELS 3 Zrotation Xrotation Yrotation
                          End Site
                          {
                            OFFSET -1.645 0 0
                          }
                        }
                      }
                    }
                  }
                }
              }
            }
          }
          JOINT LeftShoulder
          {
            OFFSET 3.23403 6.91572 -0.0126821
            CHANNELS 3 Zrotation Xrotation Yrotation
            JOINT LeftArm
            {
              OFFSET 12.8488 -0.0444641 -0.0528339
              CHANNELS 3 Zrotation Xrotation Yrotation
              JOINT LeftForeArm
              {
                OFFSET 26.4942 -0.0237746 -0.09002
                CHANNELS 3 Zrotation Xrotation Yrotation
                JOINT LeftHand
                {
                  OFFSET 25.9989 -0.00653758 -0.026747
                  CHANNELS 3 Zrotation Xrotation Yrotation
                  JOINT LeftHandThumb1
                  {
                    OFFSET 2.48905 0.190105 3.12053
                    CHANNELS 3 Zrotation Xrotation Yrotation
                    JOINT LeftHandThumb2
                    {
                      OFFSET 3.68274 0 0
                      CHANNELS 3 Zrotation Xrotation Yrotation
                      JOINT LeftHandThumb3
                      {
                        OFFSET 2.55832 0 0
                        CHANNELS 3 Zrotation Xrotation Yrotation
                        End Site
                        {
                          OFFSET 2.194 0 0
                        }
                      }
                    }
                  }
                  JOINT LeftInHandIndex
                  {
                    OFFSET 3.22368 0.508421 1.97842
                    CHANNELS 3 Zrotation Xrotation Yrotation
                    JOINT LeftHandIndex1
                    {
                      OFFSET 5.21684 -0.091368 0.999158
                      CHANNELS 3 Zrotation Xrotation Yrotation
                      JOINT LeftHandIndex2
                      {
                        OFFSET 3.61937 0 0
                        CHANNELS 3 Zrotation Xrotation Yrotation
                        JOINT LeftHandIndex3
                        {
                          OFFSET 2.0521 0 0
                          CHANNELS 3 Zrotation Xrotation Yrotation
                          End Site
                          {
                            OFFSET 1.805 0 0
                          }
                        }
                      }
                    }
                  }
                  JOINT LeftInHandMiddle
                  {
                    OFFSET 3.38211 0.517263 0.756737
                    CHANNELS 3 Zrotation Xrotation Yrotation
                    JOINT LeftHandMiddle1
                    {
                      OFFSET 5.17411 -0.084 0.313895
                      CHANNELS 3 Zrotation Xrotation Yrotation
                      JOINT LeftHandMiddle2
                      {
                        OFFSET 3.94947 0 0
                        CHANNELS 3 Zrotation Xrotation Yrotation
                        JOINT LeftHandMiddle3
                        {
                          OFFSET 2.47579 0 0
                          CHANNELS 3 Zrotation Xrotation Yrotation
                          End Site
                          {
                            OFFSET 1.975 0 0
                          }
                        }
                      }
                    }
                  }
                  JOINT LeftInHandRing
                  {
                    OFFSET 3.36516 0.537895 -0.128947
                    CHANNELS 3 Zrotation Xrotation Yrotation
                    JOINT LeftHandRing1
                    {
                      OFFSET 4.63474 -0.022105 -0.478947
                      CHANNELS 3 Zrotation Xrotation Yrotation
                      JOINT LeftHandRing2
                      {
                        OFFSET 3.44238 0 0
                        CHANNELS 3 Zrotation Xrotation Yrotation
                        JOINT LeftHandRing3
                        {
                          OFFSET 2.3881 0 0
                          CHANNELS 3 Zrotation Xrotation Yrotation
                          End Site
                          {
                            OFFSET 1.857 0 0
                          }
                        }
                      }
                    }
                  }
                  JOINT LeftInHandPinky
                  {
                    OFFSET 3.16105 0.469368 -1.20179
                    CHANNELS 3 Zrotation Xrotation Yrotation
                    JOINT LeftHandPinky1
                    {
                      OFFSET 4.14105 -0.022105 -1.09053
                      CHANNELS 3 Zrotation Xrotation Yrotation
                      JOINT LeftHandPinky2
                      {
                        OFFSET 2.75653 0 0
                        CHANNELS 3 Zrotation Xrotation Yrotation
                        JOINT LeftHandPinky3
                        {
                          OFFSET 1.74189 0 0
                          CHANNELS 3 Zrotation Xrotation Yrotation
                          End Site
                          {
                            OFFSET 1.645 0 0
                          }
                        }
                      }
                    }
                  }
                }
              }
            }
          }
        }
      }
    }
  }
}
MOTION
Frames: 3
Frame Time: 0.00833333
7.484035006478641208e+02 2.633864028045739825e-01 -2.871171716115235917e+00 -9.760250920090058901e-01 -4.195560613222858670e+00 -5.563696574967320174e+00 5.971086186815281138e+00 1.193929744126940662e+01 5.139415524354580711e+00 -4.165876337065856916e-01 -4.553246802168986918e+00 1.348425918293366221e+00 -4.435538936181289138e+00 5.049081949261902125e+00 1.057440594545267309e+01 -1.371728008611138305e-01 1.284445323714445486e+01 1.678137564636576207e-01 -7.937186400097151484e+00 -4.456903312829074260e+00 5.866836925147961068e+00 2.522138096673705032e+00 3.594450325367917198e-01 3.949824252408227654e+00 -2.947275749445416704e+00 -5.107554136826801816e+00 1.466764395839325053e+00 -6.601623221657594298e-01 -1.428240617500353915e+00 3.346776131658242281e-01 -1.107782570265901212e+00 -2.372251968107383480e+00 4.002371946343724063e-01 2.224798540286446746e-01 -3.790179821653952286e-02 8.210166989229461879e-03 1.792789816487041721e+00 -8.552694997415999367e-01 5.479007641675598173e+00 3.657425108163820493e+00 2.139742967157428843e+00 -2.115544857355334596e+00 -1.770214646299213435e+00 1.012913292343567528e+00 2.058714780086825957e+00 -2.598060900135888218e+01 -5.591963022919161475e+00 -1.007691035077027131e+01 -4.820612840373954100e+00 6.197650595856321942e+00 1.426826247232283507e+01 -3.246316786129320731e-01 5.216357737164999619e+00 1.173188160057773155e+00 0.000000000000000000e+00 0.000000000000000000e+00 0.000000000000000000e+00 -2.076995572010356043e-15 4.705247232518903269e-15 0.000000000000000000e+00 1.724237255226014261e-15 3.699057563020490273e-15 0.000000000000000000e+00 -1.282548672757836916e-16 -1.643270779232604626e-15 1.232180431852640189e-15 0.000000000000000000e+00 0.000000000000000000e+00 0.000000000000000000e+00 0.000000000000000000e+00 -9.644403027157967400e-16 -7.560511460048281636e-16 0.000000000000000000e+00 -7.593892197104904560e-16 -1.745014288995998332e-15 -1.282548672757836916e-16 -1.643270779232604626e-15 1.232180431852640189e-15 0.000000000000000000e+00 -2.762877718458005904e-17 3.828864919575275278e-15 0.000000000000000000e+00 -1.650859736710255192e-15 2.127671584572668358e-15 0.000000000000000000e+00 2.349772520592867486e-15 3.654987072220829216e-15 -1.282548672757836916e-16 -1.643270779232604626e-15 1.232180431852640189e-15 0.000000000000000000e+00 0.000000000000000000e+00 0.000000000000000000e+00 0.000000000000000000e+00 4.459682091481730396e-15 9.130337503740017980e-16 0.000000000000000000e+00 -5.101711647844330610e-16 6.098730808039095369e-16 -1.282548672757836916e-16 -1.643270779232604626e-15 1.232180431852640189e-15 0.000000000000000000e+00 0.000000000000000000e+00 0.000000000000000000e+00 0.000000000000000000e+00 -2.514435744893212755e-16 4.650695271965610714e-15 0.000000000000000000e+00 5.413565459316704812e-16 5.103009839326994456e-15 -3.488429744002877086e+00 4.935306339920558227e-01 1.884841872192867251e+00 5.405819094399362257e+00 -4.937916684204678219e+00 -5.041910908680117487e+00 1.840329830950476264e+01 -1.085190025760734089e+00 -1.095987707253244636e+01 3.540970819196779917e+00 9.631656394957573142e-02 -7.959267027711282694e+00 0.000000000000000000e+00 0.000000000000000000e+00 0.000000000000000000e+00 -1.054659242655207399e-15 2.845511339468397798e-16 0.000000000000000000e+00 5.518092588858628735e-16 -1.031283430468583220e-15 0.000000000000000000e+00 3.117254699947936325e-16 -1.123269291503889299e-15 -7.912720396393777244e-16 0.000000000000000000e+00 0.000000000000000000e+00 0.000000000000000000e+00 0.000000000000000000e+00 -1.665310211837813588e-15 -5.740732110454484182e-15 0.000000000000000000e+00 1.193052886023924300e-15 -8.846374878468989133e-15 3.117254699947936325e-16 -1.123269291503889299e-15 -7.912720396393777244e-16 0.000000000000000000e+00 3.479032689379176093e-16 -4.913821602590111531e-15 0.000000000000000000e+00 1.861829843041079450e-15 -6.238111553320726179e-15 0.000000000000000000e+00 4.820411353918353687e-15 -7.319187269331008300e-15 3.117254699947936325e-16 -1.123269291503889299e-15 -7.912720396393777244e-16 0.000000000000000000e+00 0.000000000000000000e+00 0.000000000000000000e+00 0.000000000000000000e+00 -1.706512577898291261e-15 -5.337519367281855228e-15 0.000000000000000000e+00 2.953760735442186873e-15 -9.984144885712685016e-15 3.117254699947936325e-16 -1.123269291503889299e-15 -7.912720396393777244e-16 0.000000000000000000e+00 0.000000000000000000e+00 0.000000000000000000e+00 0.000000000000000000e+00 1.783081615882118740e-15 -5.543480638860985615e-15 0.000000000000000000e+00 -4.230445000582272489e-16 -1.732896635382650620e-15
7.484481648630979862e+02 2.343496290571844276e-01 -2.916606720966971711e+00 -8.381410589273305956e-01 -4.157723512055279791e+00 -5.883355309566097979e+00 6.296264456063605408e+00 1.166146443651363995e+01 5.266151310949258146e+00 -4.749484363096410089e-01 -4.497029234940336906e+00 1.462884920107281106e+00 -4.518626639313102267e+00 5.221706189290752143e+00 1.084253793217839146e+01 1.558567553185070398e-01 1.274083978756904578e+01 2.837470387818532003e-01 -8.073875813429781445e+00 -4.356994895072399565e+00 5.959375826816579291e+00 2.588702682992207738e+00 4.181499073138922884e-01 4.210279929113097452e+00 -2.968004935317976933e+00 -5.222492811343584229e+00 1.286124732371282997e+00 -6.693847410301652090e-01 -1.451362711646574155e+00 2.843217666430637447e-01 -1.121164179379444237e+00 -2.406256522915225737e+00 3.165993032043895039e-01 2.153648055806035022e-01 -4.480125810547927467e-02 3.502064155172630866e-02 1.773128028679526347e+00 -8.612025160268617086e-01 5.495401413241514987e+00 3.502615757317367073e+00 2.047706106583671026e+00 -1.599179071382397010e+00 -1.740593067869367072e+00 1.111030272672024033e+00 1.919144865733298344e+00 -2.590819989454714545e+01 -5.806803223764918975e+00 -1.036265172506011112e+01 -4.637982631900721131e+00 5.934691806696635652e+00 1.513460568375744053e+01 -4.686360587087688989e-01 5.191263416455677238e+00 1.416322723844261722e+00 0.000000000000000000e+00 0.000000000000000000e+00 0.000000000000000000e+00 -2.130534503155940513e-15 4.707295730154177904e-15 0.000000000000000000e+00 1.633472433833966800e-15 3.751479855973939505e-15 0.000000000000000000e+00 -1.472809287541127307e-16 -1.642278063644366287e-15 1.256816196392442517e-15 0.000000000000000000e+00 0.000000000000000000e+00 0.000000000000000000e+00 0.000000000000000000e+00 -9.707874225026602501e-16 -9.682268110325330769e-16 0.000000000000000000e+00 -8.541339011645583025e-16 -2.078555383006950850e-15 -1.472809287541127307e-16 -1.642278063644366287e-15 1.256816196392442517e-15 0.000000000000000000e+00 6.312076361455470381e-18 3.812192238013162812e-15 0.000000000000000000e+00 -1.606777424495431470e-15 1.981243104743391493e-15 0.000000000000000000e+00 2.319921442256658671e-15 3.144739100897424004e-15 -1.472809287541127307e-16 -1.642278063644366287e-15 1.256816196392442517e-15 0.000000000000000000e+00 0.000000000000000000e+00 0.000000000000000000e+00 0.000000000000000000e+00 4.478002609909767837e-15 9.019546818469919257e-16 0.000000000000000000e+00 -6.040443874666090451e-16 3.044086582819573817e-16 -1.472809287541127307e-16 -1.642278063644366287e-15 1.256816196392442517e-15 0.000000000000000000e+00 0.000000000000000000e+00 0.000000000000000000e+00 0.000000000000000000e+00 -3.213840244477775196e-16 4.746488761571195336e-15 0.000000000000000000e+00 4.950980094350070340e-16 4.868660255079277037e-15 -3.586769785892484297e+00 5.294833886383246702e-01 1.741593449992792308e+00 5.748609142484826684e+00 -4.981555514828908571e+00 -5.284031148387945187e+00 1.939147519866689251e+01 -6.281245293263021390e-01 -1.005655851434229398e+01 3.454081903376556184e+00 1.318070202530686186e-01 -7.947883129056594775e+00 0.000000000000000000e+00 0.000000000000000000e+00 0.000000000000000000e+00 -1.059445705631800940e-15 2.576257205862211153e-16 0.000000000000000000e+00 5.705325891284910753e-16 -1.078025884691972928e-15 0.000000000000000000e+00 3.285652525641292140e-16 -1.183266034622207729e-15 -7.463902376696368879e-16 0.000000000000000000e+00 0.000000000000000000e+00 0.000000000000000000e+00 0.000000000000000000e+00 -1.719880130654455602e-15 -5.645045719843059747e-15 0.000000000000000000e+00 1.146456303931926482e-15 -8.619812690614884976e-15 3.285652525641292140e-16 -1.183266034622207729e-15 -7.463902376696368879e-16 0.000000000000000000e+00 2.880835675843559414e-16 -4.861445652127677113e-15 0.000000000000000000e+00 1.918742959603211991e-15 -6.074989924014544454e-15 0.000000000000000000e+00 4.806035656206608003e-15 -7.022218881109683684e-15 3.285652525641292140e-16 -1.183266034622207729e-15 -7.463902376696368879e-16 0.000000000000000000e+00 0.000000000000000000e+00 0.000000000000000000e+00 0.000000000000000000e+00 -1.755354028310716573e-15 -5.213483867555801021e-15 0.000000000000000000e+00 2.902153393221603625e-15 -9.760793034601454098e-15 3.285652525641292140e-16 -1.183266034622207729e-15 -7.463902376696368879e-16 0.000000000000000000e+00 0.000000000000000000e+00 0.000000000000000000e+00 0.000000000000000000e+00 1.754039941444503725e-15 -5.481816393733764908e-15 0.000000000000000000e+00 -3.917586178626300714e-16 -1.589105579092855622e-15
7.484955199967565704e+02 2.044629724254259928e-01 -2.957736136715529707e+00 -6.953905236197375217e-01 -4.112082268717252020e+00 -6.198068493506915466e+00 6.620017250340505477e+00 1.135842502907160778e+01 5.389214288444329704e+00 -5.337640063689508274e-01 -4.432012005783407815e+00 1.577659542171967910e+00 -4.597405513648248565e+00 5.389429040951261740e+00 1.109716033325102558e+01 4.557127725076791647e-01 1.261482985632441078e+01 4.025508869858095973e-01 -8.199916253764680363e+00 -4.248299392575326294e+00 6.043399849781597943e+00 2.651380592680061543e+00 4.760132958805592951e-01 4.467163881338018783e+00 -2.983971539356014002e+00 -5.331779515361930066e+00 1.099943699916486439e+00 -6.776501548031469424e-01 -1.472703476727196259e+00 2.325226683957277718e-01 -1.132883075148672924e+00 -2.437259554729033884e+00 2.307762256843479409e-01 2.077861149656165807e-01 -5.179993972464865676e-02 6.236707360621908391e-02 1.750041348322989965e+00 -8.677583319747107504e-01 5.508875333187033263e+00 3.339719294437097030e+00 1.952778466313153993e+00 -1.072419283729193928e+00 -1.707143267848820756e+00 1.208561798418074318e+00 1.773567150078844579e+00 -2.579086396211032906e+01 -6.019635027852786813e+00 -1.063141348819203458e+01 -4.451694602890870378e+00 5.656939277910887576e+00 1.598945120988766355e+01 -6.140296387223623809e-01 5.155766498811375165e+00 1.663864036780747790e+00 0.000000000000000000e+00 0.000000000000000000e+00 0.000000000000000000e+00 -2.177599821501358258e-15 4.702667498237717879e-15 0.000000000000000000e+00 1.541672564202548394e-15 3.797363233596443738e-15 0.000000000000000000e+00 -1.663295631429553988e-16 -1.640768157230861931e-15 1.278901244000905797e-15 0.000000000000000000e+00 0.000000000000000000e+00 0.000000000000000000e+00 0.000000000000000000e+00 -9.758366178811171570e-16 -1.175010838855657450e-15 0.000000000000000000e+00 -9.464989820542153759e-16 -2.397082781105320923e-15 -1.663295631429553988e-16 -1.640768157230861931e-15 1.278901244000905797e-15 0.000000000000000000e+00 3.949589266152210001e-17 3.789190945919449901e-15 0.000000000000000000e+00 -1.560098839580802333e-15 1.833309315225067469e-15 0.000000000000000000e+00 2.287968255806143960e-15 2.640895663258026276e-15 -1.663295631429553988e-16 -1.640768157230861931e-15 1.278901244000905797e-15 0.000000000000000000e+00 0.000000000000000000e+00 0.000000000000000000e+00 0.000000000000000000e+00 4.488390259273077595e-15 8.951075302909929551e-16 0.000000000000000000e+00 -6.942270470869657235e-16 7.482755209427209483e-18 -1.663295631429553988e-16 -1.640768157230861931e-15 1.278901244000905797e-15 0.000000000000000000e+00 0.000000000000000000e+00 0.000000000000000000e+00 0.000000000000000000e+00 -3.914731231877346651e-16 4.836530067146547035e-15 0.000000000000000000e+00 4.480611913834572298e-16 4.635563619773002190e-15 -3.683074250373966851e+00 5.634740708349968985e-01 1.590927758339531817e+00 6.089102369592654718e+00 -5.017353791676627317e+00 -5.523230685738926837e+00 2.036830785517989639e+01 -1.596449365385362029e-01 -9.121455172779098675e+00 3.358300750735235152e+00 1.685155494033341306e-01 -7.924451225416608402e+00 0.000000000000000000e+00 0.000000000000000000e+00 0.000000000000000000e+00 -1.061454538772504518e-15 2.308936418411667673e-16 0.000000000000000000e+00 5.872888923298047645e-16 -1.122291481176347676e-15 0.000000000000000000e+00 3.455575504193969987e-16 -1.241101581285362961e-15 -6.986791752837893541e-16 0.000000000000000000e+00 0.000000000000000000e+00 0.000000000000000000e+00 0.000000000000000000e+00 -1.770900312631748829e-15 -5.541401613993914590e-15 0.000000000000000000e+00 1.099259820783320411e-15 -8.379660509556910317e-15 3.455575504193969987e-16 -1.241101581285362961e-15 -6.986791752837893541e-16 0.000000000000000000e+00 2.266611539782835353e-16 -4.800504038884459832e-15 0.000000000000000000e+00 1.972386460300528331e-15 -5.902544894756440545e-15 0.000000000000000000e+00 4.781921808263127748e-15 -6.715586031789798245e-15 3.455575504193969987e-16 -1.241101581285362961e-15 -6.986791752837893541e-16 0.000000000000000000e+00 0.000000000000000000e+00 0.000000000000000000e+00 0.000000000000000000e+00 -1.799981148279794038e-15 -5.082395537515981066e-15 0.000000000000000000e+00 2.844847481661864209e-15 -9.523789936292696996e-15 3.455575504193969987e-16 -1.241101581285362961e-15 -6.986791752837893541e-16 0.000000000000000000e+00 0.000000000000000000e+00 0.000000000000000000e+00 0.000000000000000000e+00 1.721011837557174468e-15 -5.410876496328761960e-15 0.000000000000000000e+00 -3.614574550254528191e-16 -1.443557840187348082e-15
